HIERARCHY
ROOT joint_Root
{
	OFFSET 0.0 0.0 0.0
	CHANNELS 6 Xposition Yposition Zposition Zrotation Xrotation Yrotation 
	JOINT Hips
	{
		OFFSET 4.5925 91.4895 -427.239
		CHANNELS 6 Xposition Yposition Zposition Zrotation Xrotation Yrotation 
		JOINT Spine
		{
			OFFSET 15.7357 0.0 0.0
			CHANNELS 6 Xposition Yposition Zposition Zrotation Xrotation Yrotation 
			JOINT Chest
			{
				OFFSET 8.98455 -0.406207 0.0
				CHANNELS 6 Xposition Yposition Zposition Zrotation Xrotation Yrotation 
				JOINT Neck
				{
					OFFSET 16.3773 0.0 0.0
					CHANNELS 6 Xposition Yposition Zposition Zrotation Xrotation Yrotation 
					JOINT Head
					{
						OFFSET 6.45672 0.0 0.0
						CHANNELS 6 Xposition Yposition Zposition Zrotation Xrotation Yrotation 
						End Site
						{
							OFFSET 0.0 0.0 0.0
						}
					}
				}
				JOINT Shoulder_L
				{
					OFFSET 12.9942 -0.242716 4.98039
					CHANNELS 6 Xposition Yposition Zposition Zrotation Xrotation Yrotation 
					JOINT UpperArm_L
					{
						OFFSET 5.34809 0.0 0.0
						CHANNELS 6 Xposition Yposition Zposition Zrotation Xrotation Yrotation 
						JOINT LowerArm_L
						{
							OFFSET 24.3286 1.87007e-05 0.0
							CHANNELS 6 Xposition Yposition Zposition Zrotation Xrotation Yrotation 
							JOINT Hand_L
							{
								OFFSET 22.2916 0.0 0.0
								CHANNELS 6 Xposition Yposition Zposition Zrotation Xrotation Yrotation 
								End Site
								{
									OFFSET 0.0 0.0 0.0
								}
							}
						}
					}
				}
				JOINT Shoulder_R
				{
					OFFSET 12.9945 -0.242716 -4.98039
					CHANNELS 6 Xposition Yposition Zposition Zrotation Xrotation Yrotation 
					JOINT UpperArm_R
					{
						OFFSET -5.34813 0.0 0.0
						CHANNELS 6 Xposition Yposition Zposition Zrotation Xrotation Yrotation 
						JOINT LowerArm_R
						{
							OFFSET -24.3289 0.000322201 0.0
							CHANNELS 6 Xposition Yposition Zposition Zrotation Xrotation Yrotation 
							JOINT Hand_R
							{
								OFFSET -22.2915 -0.000108084 0.0
								CHANNELS 6 Xposition Yposition Zposition Zrotation Xrotation Yrotation 
								End Site
								{
									OFFSET 0.0 0.0 0.0
								}
							}
						}
					}
				}
			}
		}
		JOINT UpperLeg_L
		{
			OFFSET -2.19248 -6.46944 0.0
			CHANNELS 6 Xposition Yposition Zposition Zrotation Xrotation Yrotation 
			JOINT LowerLeg_L
			{
				OFFSET 39.0811 0.0 -1.23785e-05
				CHANNELS 6 Xposition Yposition Zposition Zrotation Xrotation Yrotation 
				JOINT Foot_L
				{
					OFFSET 40.9854 0.0 -1.26872e-05
					CHANNELS 6 Xposition Yposition Zposition Zrotation Xrotation Yrotation 
					JOINT Toes_L
					{
						OFFSET 11.7543 0.0 0.0
						CHANNELS 6 Xposition Yposition Zposition Zrotation Xrotation Yrotation 
						End Site
						{
							OFFSET 0.0 0.0 0.0
						}
					}
				}
			}
		}
		JOINT UpperLeg_R
		{
			OFFSET -2.19251 6.46944 0.0
			CHANNELS 6 Xposition Yposition Zposition Zrotation Xrotation Yrotation 
			JOINT LowerLeg_R
			{
				OFFSET -39.0811 -0.00228153 -0.0401928
				CHANNELS 6 Xposition Yposition Zposition Zrotation Xrotation Yrotation 
				JOINT Foot_R
				{
					OFFSET -40.9854 0.0 0.0
					CHANNELS 6 Xposition Yposition Zposition Zrotation Xrotation Yrotation 
					JOINT Toes_R
					{
						OFFSET -11.7543 0.0 0.0
						CHANNELS 6 Xposition Yposition Zposition Zrotation Xrotation Yrotation 
						End Site
						{
							OFFSET 0.0 0.0 0.0
						}
					}
				}
			}
		}
	}
}
MOTION
Frames:	4
Frame Time:	0.0333333
0.000000 0.000000 0.000000 0.000000 0.000000 -0.000000 -1.911280 90.211700 4.027630 90.284100 -5.554090 11.076700 15.735700 0.000005 -0.000001 72.394700 83.734100 -70.934300 8.984550 -0.406207 -0.000000 4.237100 -3.829360 3.060020 16.377300 -0.000001 -0.000001 26.382400 -13.528000 5.346540 6.456720 -0.000001 -0.000000 18.216800 -17.932200 10.599900 12.994200 -0.242716 4.980390 -87.467800 -6.323760 -68.124100 5.348090 -0.000007 -0.000001 -54.829900 -41.636600 -93.276000 24.328600 0.000019 0.000005 16.532300 16.456600 -46.336700 22.291600 -0.000001 0.000005 28.837000 5.348760 -1.340070 12.994500 -0.242716 -4.980390 88.433300 9.481620 -80.572700 -5.348130 -0.000001 -0.000004 -63.668100 32.389500 -6.630850 -24.328900 0.000322 -0.000009 1.286650 4.268510 -16.804600 -22.291500 -0.000108 -0.000004 11.783600 5.413770 -3.390250 -2.192480 -6.469440 -0.000000 -172.583000 -16.092500 5.067780 39.081100 -0.000007 -0.000012 -0.246497 0.421173 30.339300 40.985400 -0.000006 -0.000013 -0.941035 5.981420 -73.232900 11.754300 -0.000000 0.000003 -0.000099 -0.001017 -16.616600 -2.192510 6.469440 -0.000001 171.872000 21.158800 -174.096000 -39.081100 -0.002282 -0.040193 -0.268816 0.461214 30.541100 -40.985400 0.000008 0.000006 3.985420 14.277100 -74.721700 -11.754300 -0.000006 -0.000006 -0.000655 -0.010373 -16.995200
0.000000 0.000000 0.000000 0.000000 0.000000 -0.000000 -1.903130 90.215500 4.033790 90.261700 -5.689250 11.057600 15.735700 0.000005 -0.000001 72.406700 83.764600 -70.962300 8.984550 -0.406207 -0.000000 4.178710 -3.808810 3.025340 16.377300 -0.000001 -0.000001 26.198400 -13.574200 5.413590 6.456720 -0.000001 -0.000000 18.186800 -18.004900 10.893000 12.994200 -0.242716 4.980390 -87.413900 -6.436000 -68.053200 5.348090 -0.000007 -0.000001 -55.058100 -41.935900 -93.466300 24.328600 0.000019 0.000005 16.497600 16.507300 -46.187600 22.291600 -0.000001 0.000005 28.810100 5.349120 -1.350930 12.994500 -0.242716 -4.980390 88.438800 9.451470 -80.576100 -5.348130 -0.000001 -0.000004 -63.668800 32.259600 -6.635080 -24.328900 0.000322 -0.000009 1.298020 4.340420 -16.679900 -22.291500 -0.000108 -0.000004 11.803000 5.411730 -3.322440 -2.192480 -6.469440 -0.000000 -172.562000 -16.152100 5.091350 39.081100 -0.000007 -0.000012 -0.246657 0.421869 30.314200 40.985400 -0.000006 -0.000013 -0.959982 5.909070 -73.240300 11.754300 -0.000000 0.000003 -0.000097 -0.001004 -16.616100 -2.192510 6.469440 -0.000001 171.947000 20.990300 -174.143000 -39.081100 -0.002282 -0.040193 -0.267421 0.459204 30.521700 -40.985400 0.000008 0.000006 3.973020 14.260900 -74.696600 -11.754300 -0.000006 -0.000006 -0.000680 -0.010746 -17.010300
0.000000 0.000000 0.000000 0.000000 0.000000 -0.000000 -1.897150 90.217200 4.039860 90.250800 -5.762120 11.048600 15.735700 0.000005 -0.000001 72.258300 83.787500 -70.832700 8.984550 -0.406207 -0.000000 4.124750 -3.825760 2.986550 16.377300 -0.000001 -0.000001 26.077300 -13.622700 5.527600 6.456720 -0.000001 -0.000000 18.084600 -18.114400 11.124500 12.994200 -0.242716 4.980390 -87.378000 -6.516920 -68.026700 5.348090 -0.000007 -0.000001 -55.266300 -42.241500 -93.635500 24.328600 0.000019 0.000005 16.487400 16.540900 -46.112100 22.291600 -0.000001 0.000005 28.819500 5.348800 -1.341470 12.994500 -0.242716 -4.980390 88.440200 9.458530 -80.591300 -5.348130 -0.000001 -0.000004 -63.596000 32.193700 -6.629160 -24.328900 0.000322 -0.000009 1.323150 4.435580 -16.640900 -22.291500 -0.000108 -0.000004 11.798100 5.411330 -3.309120 -2.192480 -6.469440 -0.000000 -172.553000 -16.178400 5.090490 39.081100 -0.000007 -0.000012 -0.247246 0.422937 30.310700 40.985400 -0.000006 -0.000013 -0.967342 5.874850 -73.240900 11.754300 -0.000000 0.000003 -0.000096 -0.000991 -16.615600 -2.192510 6.469440 -0.000001 171.964000 20.960800 -174.149000 -39.081100 -0.002282 -0.040193 -0.266167 0.457365 30.505900 -40.985400 0.000008 0.000006 3.970410 14.272900 -74.688300 -11.754300 -0.000006 -0.000006 -0.000656 -0.010389 -16.995800
0.000000 0.000000 0.000000 0.000000 0.000000 -0.000000 -1.876800 90.219600 4.037230 90.253600 -5.815780 11.014800 15.735700 0.000005 -0.000001 72.201300 83.815900 -70.784100 8.984550 -0.406207 -0.000000 4.066510 -3.820770 2.967790 16.377300 -0.000001 -0.000001 25.892100 -13.686200 5.615690 6.456720 -0.000001 -0.000000 18.064100 -18.270900 11.330300 12.994200 -0.242716 4.980390 -87.356100 -6.566450 -68.010900 5.348090 -0.000007 -0.000001 -55.551800 -42.464800 -93.841800 24.328600 0.000019 0.000005 16.466800 16.531800 -46.089700 22.291600 -0.000001 0.000005 28.820300 5.346130 -1.261560 12.994500 -0.242716 -4.980390 88.446500 9.417370 -80.589100 -5.348130 -0.000001 -0.000004 -63.529100 32.169500 -6.675680 -24.328900 0.000322 -0.000009 1.305990 4.388810 -16.602200 -22.291500 -0.000108 -0.000004 11.920600 5.414300 -3.407960 -2.192480 -6.469440 -0.000000 -172.582000 -16.193200 5.070250 39.081100 -0.000007 -0.000012 -0.247265 0.423229 30.295400 40.985400 -0.000006 -0.000013 -0.964876 5.834850 -73.242900 11.754300 -0.000000 0.000003 -0.000100 -0.001029 -16.617000 -2.192510 6.469440 -0.000001 171.974000 20.931000 -174.206000 -39.081100 -0.002282 -0.040193 -0.265105 0.455471 30.511000 -40.985400 0.000008 0.000006 3.966230 14.293100 -74.676000 -11.754300 -0.000006 -0.000006 -0.000603 -0.009595 -16.963600
